<?xml version="1.0" encoding="UTF-8"?>
<svg xmlns="http://www.w3.org/2000/svg" version="1.1" viewBox="0 0 2000 2000">
  <!-- Generator: Adobe Illustrator 30.2.1, SVG Export Plug-In . SVG Version: 2.1.1 Build 1)  -->
  <defs>
    <style>
      .st0 {
        fill: #b97e2b;
      }

      .st1 {
        fill: #c3862b;
      }

      .st2 {
        fill: #3a9974;
      }

      .st2, .st3 {
        display: none;
      }

      .st4 {
        fill: #f8c12c;
      }

      .st5 {
        fill: #facd3d;
      }

      .st6 {
        fill: #d79928;
      }

      .st7 {
        fill: #fed600;
      }

      .st8 {
        fill: #fff;
      }

      .st9 {
        fill: #e6a823;
      }
    </style>
  </defs>
  <g id="Background" class="st3">
    <rect class="st8" width="2000" height="2000"/>
  </g>
  <g id="The_Fellowship_of_the_League">
    <rect class="st2" width="2000" height="2000"/>
    <g id="Concept_2">
      <g>
        <path class="st4" d="M1500.69,410.31c-65.22-89.41-153.17-156.05-260.06-188.59-61.27-18.75-124.51-24.95-187.75-19.99-91.9,7.28-183.97,38.12-270.27,88.64-138.18,108.63-269.77,304.66-350.64,545-77.9,231.36-92.23,454.66-51.71,617.06,43.48,101.35,108.87,186.11,193.02,244.53,41.01,28.82,86.63,51.14,136.2,66.32,99.31,30.22,203.57,27.89,305.02-1.86,182.48-53.62,355.42-195.41,472.02-393.91,0-.16.16-.31.33-.47,29.48-58.27,56.16-121.33,79.22-188.12,27.83-80.74,47.76-160.39,60.11-235.85,20.75-205.02-25.69-395.77-125.5-532.76ZM853.27,1526.97c-5.93,5.11-11.86,10.23-17.79,14.88-140.82-59.66-161.57-334.56-45.29-621.4,100.96-249.18,272.74-426.61,412.56-440.4,1.81,6.97,3.46,14.26,4.94,21.7,29.65,143.65,11.86,341.54-59.13,547.48-71.31,207.03-181.17,377.96-295.3,477.75Z"/>
        <path class="st6" d="M1202.75,480.04c-118.75,11.78-260.71,141.64-362.5,333.17-18.12,33.94-34.92,69.73-50.07,107.23-116.28,286.84-95.52,561.74,45.29,621.4-82.68,66.63-166.84,95.46-239.63,73.3-118.91-36.26-177.38-199.59-166.01-412.82,5.6-107.54,29.15-227.64,71.48-350.53,126.49-367.1,373.86-620.47,552.56-565.92,73.29,22.32,123.69,93.13,148.89,194.17Z"/>
        <path class="st0" d="M1202.75,480.04c-118.75,11.78-260.71,141.64-362.5,333.17-196.65,80.12-335.65,265.45-410.42,389.11,5.6-107.54,29.15-227.64,71.48-350.53,126.49-367.1,373.86-620.47,552.56-565.92,73.29,22.32,123.69,93.13,148.89,194.17Z"/>
        <path class="st9" d="M1638.38,844.05c-2.47,32.08-6.59,65.09-12.19,99.02-5.6,34.4-12.85,69.58-21.74,105.37-9.55,39.51-21.25,79.65-35.08,120.25-.99,3.41-2.14,6.82-3.29,10.23-6.59,19.06-13.34,37.65-20.59,56.09-10.7,27.89-22.23,55.01-34.26,81.36-7.91,17.2-15.98,34.09-24.38,50.67-.16.16-.33.31-.33.47-93.38,184.1-213.94,320.62-327.75,374.23,0,0,0,.16-.16.16-.33.46-.66.77-1.32,1.08-182.15,96.85-391.65,49.43-391.65,49.43-101.95-27.58-175.07-65.4-210.32-89.41-39.03-26.5-74.28-59.51-74.28-59.51-7.58-7.13-13.01-13.17-16.96-17.82,14.16,11.16,34.92,26.03,63.08,38.12,11.2,4.96,70.49,29.91,151.19,23.55,66.04-5.11,114.46-28.51,143.61-46.95,15.81-9.92,26.02-18.44,30.3-21.54.99-.62,9.55-6.82,18.78-14.57.33-.31.66-.62.99-.93-5.76-16.89-10.54-35.02-14.66-54.08-1.48-7.28-2.96-14.72-4.12-22.31,114.13-99.79,223.99-270.72,295.3-477.75,15.81-45.87,28.99-91.27,39.53-135.75,2.96-12.55,5.76-24.95,8.23-37.34,29.48-141.17,32.61-271.65,11.36-374.39,3.13-3.1,6.42-6.04,9.72-8.99,5.11-4.49,10.21-8.83,15.32-13.17,10.38-8.83,20.92-17.04,31.46-24.48,0,0-6.09-37.04-27.34-84.3-31.62-70.2-99.97-161.16-254.62-173.09,0,0,126.16-11.16,271.75,23.24,142.96,33.94,296.29,167.52,347.51,306.98,34.09,79.96,47.1,189.98,36.89,316.12Z"/>
        <path class="st9" d="M542.37,1780.36"/>
        <path class="st1" d="M1500.2,1339.77c-4.28,9.14-8.73,18.29-13.34,27.27-.16.16-.33.31-.33.47-93.38,184.1-213.94,320.62-327.75,374.23,0,0,0,.16-.16.16-.33.46-.66.77-1.32,1.08-182.15,96.85-391.65,49.43-391.65,49.43-101.95-27.58-175.07-65.4-210.32-89.41-39.03-26.5-74.28-59.51-74.28-59.51-7.58-7.13-13.01-13.17-16.96-17.82,14.16,11.16,34.92,26.03,63.08,38.12,11.2,4.96,70.49,29.91,151.19,23.55,22.56-1.86,43.15-5.73,61.6-10.85,134.56,16.58,527.19,28.98,760.24-336.73Z"/>
        <path class="st5" d="M1638.38,844.05c-2.47,32.08-6.59,65.09-12.19,99.02-5.6,34.4-12.85,69.58-21.74,105.37-145.1-259.25-331.37-341.85-331.37-341.85l-55.67-213.85-28.49-109.87c38.37,16.58,73.78,33.94,106.06,52.07,234.36,130.63,315.89,295.51,343.39,409.1Z"/>
        <path class="st5" d="M1569.37,1168.7c-.99,3.41-2.14,6.82-3.29,10.23-6.59,19.06-13.34,37.65-20.59,56.09-41.83-60.9-161.24-216.17-357.39-321.55,2.96-12.55,5.76-24.95,8.23-37.34l43.81-69.73s235.68,176.97,329.23,362.3Z"/>
        <path class="st7" d="M1271.1,487.64c-2.14-11.16-4.45-22-6.92-32.54-31.29-128.77-96.51-220.2-191.87-248.56-6.42-2.02-13.01-3.56-19.43-4.8-84.65-16.89-179.03,16.74-270.27,88.64-138.18,108.63-269.77,304.66-350.64,545-77.9,231.36-92.23,454.66-51.71,617.06,31.62,126.29,96.51,215.86,190.72,243.91.82.16,1.48.47,2.31.62,92.39,26.5,197.64-10.38,298.76-93.6,19.6-15.96,39.2-33.94,58.3-53.46,111.83-113.74,213.78-282.81,280.97-482.4,72.14-214.31,89.76-421.5,59.78-579.87ZM1148.57,1049.22c-71.31,207.03-181.17,377.96-295.3,477.75-5.93,5.11-11.86,10.23-17.79,14.88-82.68,66.63-166.84,95.46-239.63,73.3-178.7-54.55-221.02-396.24-94.54-763.34,126.49-367.1,373.86-620.47,552.56-565.92,73.29,22.32,123.69,93.13,148.89,194.17,1.81,6.97,3.46,14.26,4.94,21.7,29.65,143.65,11.86,341.54-59.13,547.48Z"/>
      </g>
    </g>
  </g>
</svg>