<svg enable-background="new 0 0 72 72" height="72" viewBox="0 0 72 72" width="72" xmlns="http://www.w3.org/2000/svg"><path d="m22.583 68.8h26.313l3.159-15.832-3.348-7.962 4.117-19.391-33.276-.879 1.695 14.421-3.431 14.392z" fill="#fff"/><path d="m21.574 43.948s-2.564 3.134-5.841 6.126-5.628 6.126-5.984 9.546c-.356 3.419 7.052.214 7.052.214s1.745 6.874 3.847 8.977h2.137s-2.279-8.051-.427-14.177 5.556-7.978 5.556-7.978-4.63-3.633-5.556-7.907l-.499 1.78z"/><path d="m22.073 33.121s-.071-3.348 3.277-5.129 8.62-.641 10.4 4.773v-7.123s-7.124-.142-10.614.855-3.419.427-3.49 1.781c-.072 1.352-.072 5.911.427 4.843z"/><path d="m49.913 43.948s2.563 3.134 5.841 6.126 5.628 6.126 5.984 9.546c.355 3.42-7.053.214-7.053.214s-1.744 6.874-3.847 8.977h-2.137s2.28-8.051.427-14.177c-1.852-6.126-5.556-7.978-5.556-7.978s4.63-3.633 5.556-7.907l.499 1.78z"/><path d="m49.414 33.121s.07-3.348-3.277-5.129c-3.348-1.781-8.619-.641-10.4 4.773v-7.123s7.125-.142 10.615.855c3.489.997 3.418.427 3.489 1.781.072 1.352.072 5.911-.427 4.843z"/><path d="m35.661 4.123c-12.303 0-22.312 10.01-22.312 22.313v15.733c0 2.36 1.913 4.274 4.274 4.274 2.36 0 4.274-1.914 4.274-4.274v-14.773c2.069-.62 6.046-1.327 13.422-1.327 7.988 0 12.104.907 14.106 1.619v14.481c0 2.36 1.914 4.274 4.274 4.274 2.361 0 4.273-1.914 4.273-4.274v-15.733c.001-12.304-10.008-22.313-22.311-22.313z" fill="#2effea" stroke="#000" stroke-miterlimit="10" stroke-width="1.6"/><path d="m32.87 4.003h5.139v18.379h-5.139z"/><path d="m18.777 40.84c0 .646-.524 1.17-1.17 1.17s-1.17-.523-1.17-1.17v-3.338c0-.646.524-1.17 1.17-1.17s1.17.523 1.17 1.17z"/><ellipse cx="20.118" cy="40.832" rx=".57" ry=".801"/><path d="m52.824 40.84c0 .646.523 1.17 1.17 1.17.646 0 1.17-.523 1.17-1.17v-3.338c0-.646-.523-1.17-1.17-1.17-.646 0-1.17.523-1.17 1.17z"/><ellipse cx="53.479" cy="44.216" rx=".569" ry=".801"/><ellipse cx="51.484" cy="40.832" rx=".57" ry=".801"/><g fill="#fff" stroke="#000" stroke-miterlimit="10"><path d="m18.693 55.061c0 .59-.526 1.069-1.175 1.069s-1.175-.478-1.175-1.069v-10.97c0-.59.526-1.069 1.175-1.069s1.175.479 1.175 1.069z"/><path d="m18.693 67.243c0 .59-.526 1.069-1.175 1.069s-1.175-.479-1.175-1.069v-10.97c0-.59.526-1.069 1.175-1.069s1.175.478 1.175 1.069z"/><ellipse cx="17.517" cy="57.376" rx="3.383" ry="5.235"/><path d="m42.423 25.944s0-3.595 0-3.859-1.67-1.493-6.917-1.493-7.051 1.122-7.051 1.416 0 4.167 0 4.167-.028.588.853.508c.882-.08 3.553-.187 6.385-.187 2.833 0 5.583.187 5.958.214.372.026.772.071.772-.766z"/></g><circle cx="28.306" cy="35.649" r="2.529"/><circle cx="28.982" cy="35.258" fill="#fff" r=".855"/><circle cx="42.98" cy="35.649" r="2.529"/><circle cx="43.657" cy="35.258" fill="#fff" r=".855"/><path d="m35.394 38.036s-1.781.142-2.351.784c-.57.641 2.208 3.633 2.707 3.988.499.356 2.352-2.707 2.707-3.418.355-.713-1.068-1.283-3.063-1.354z" fill="#ff6c17"/><path d="m35.465 49.006c-10.16 0-13.832-10.299-13.868-10.402l.808-.279c.034.098 3.515 9.826 13.059 9.826 9.522 0 13.312-8.192 13.614-9.699l.838.167c-.341 1.708-4.227 10.387-14.451 10.387z"/></svg>