<svg id="Layer_1" data-name="Layer 1" xmlns="http://www.w3.org/2000/svg" viewBox="0 0 72 72"><defs><style>.cls-1{fill:#dcaa00}.cls-2{fill:#a77815}.cls-3{fill:none;stroke-width:4px}.cls-3,.cls-5,.cls-6{stroke:#231f20;stroke-linecap:round;stroke-linejoin:round}.cls-4{fill:#ffdb00}.cls-5,.cls-6{fill:#ed1c24;stroke-width:2px}.cls-6{fill:#00aeef}</style></defs><title>Team_Mascots</title><path class="cls-1" d="M64.23 9.35a5.77 5.77 0 0 0-5.77 5.77v.32a6 6 0 0 0-.19 11.9 11 11 0 0 1-8 3.7 10.08 10.08 0 0 1-7.64-3.89 6 6 0 0 0-.32-11.59v-2.87a6.2 6.2 0 0 0-6.2-6.2h-.06a6.2 6.2 0 0 0-6.2 6.2v2.87a6 6 0 0 0-.32 11.59A10.08 10.08 0 0 1 21.89 31a11 11 0 0 1-8-3.7 6 6 0 0 0-.19-11.9v-.32a5.77 5.77 0 0 0-5.76-5.73V61l28.14-.41 28.15.41z"/><path class="cls-2" d="M7.94 43.56h56.29v4.64H7.94z"/><path class="cls-3" d="M64.23 9.35a5.77 5.77 0 0 0-5.77 5.77v.32a6 6 0 0 0-.19 11.9 11 11 0 0 1-8 3.7 10.08 10.08 0 0 1-7.64-3.89 6 6 0 0 0-.32-11.59v-2.87a6.2 6.2 0 0 0-6.2-6.2h-.06a6.2 6.2 0 0 0-6.2 6.2v2.87a6 6 0 0 0-.32 11.59A10.08 10.08 0 0 1 21.89 31a11 11 0 0 1-8-3.7 6 6 0 0 0-.19-11.9v-.32a5.77 5.77 0 0 0-5.76-5.73V61l28.14-.41 28.15.41z"/><rect class="cls-4" x="3.49" y="59.07" width="65.02" height="6.44" rx="3.22" ry="3.22"/><rect class="cls-4" x="3.49" y="37.12" width="65.02" height="6.44" rx="3.22" ry="3.22"/><rect class="cls-3" x="3.49" y="37.12" width="65.02" height="6.44" rx="3.22" ry="3.22"/><rect class="cls-3" x="3.49" y="59.07" width="65.02" height="6.44" rx="3.22" ry="3.22"/><circle class="cls-2" cx="36.11" cy="22.65" r="3.75"/><circle class="cls-2" cx="36.11" cy="52.34" r="3.75"/><circle class="cls-2" cx="52.76" cy="52.34" r="3.75"/><circle class="cls-2" cx="19.41" cy="52.34" r="3.75"/><circle class="cls-5" cx="36.11" cy="21.4" r="2.5"/><circle class="cls-5" cx="36.11" cy="51.09" r="2.5"/><circle class="cls-6" cx="52.76" cy="51.09" r="2.5"/><circle class="cls-6" cx="19.41" cy="51.09" r="2.5"/></svg>