<svg enable-background="new 0 0 72 72" height="72" viewBox="0 0 72 72" width="72" xmlns="http://www.w3.org/2000/svg"><path d="m36.19 68.983c-2.873 0-4.238-.688-4.614-.921-16.252-8.656-18.261-25.657-18.424-27.384-1.289-4.79-.683-8.87 1.8-12.126 5.133-6.733 16.337-7.46 20.916-7.46 6.637 0 12.923 1.317 16.406 3.436 9.333 5.683 7.046 14.82 6.647 16.169-.179 1.838-2.23 18.707-18.369 27.334-.459.338-1.671.952-4.362.952z" fill="#cbdb2a"/><path d="m35.278 25.54s5.091 1.824 4.104 9.652c-.988 7.828-2.204 13.908-2.128 21.811s.152 10.943 2.888 10.867c2.735-.073 12.083-6.688 15.654-16.946 3.572-10.26 3.725-17.935-2.203-22.874-5.926-4.939-17.099-2.661-18.315-2.51z" fill="#9dad20"/><path d="m35.869 22.308c6.412 0 12.549 1.296 15.773 3.26 9.322 5.675 6.08 14.894 6.08 14.894s-1.419 17.835-17.834 26.549c0 0-.811.757-3.699.757s-4.003-.757-4.003-.757c-16.415-8.714-17.833-26.549-17.833-26.549-3.711-13.52 9.395-18.154 21.516-18.154m0-2.432c-4.76 0-16.42.773-21.884 7.938-2.708 3.552-3.391 7.951-2.033 13.081.241 2.337 2.553 19.436 19.026 28.228.584.347 2.176 1.078 5.212 1.078 2.806 0 4.276-.623 5.011-1.136 16.218-8.716 18.635-25.501 18.914-28.094 1.255-3.969 1.277-12.314-7.209-17.479-3.662-2.231-10.189-3.616-17.037-3.616z"/><path d="m60.783 54.305c-1.941 0-3.521-1.581-3.521-3.521v-.081l1.203-8.953c.124-2.156.219-7.691-1.774-10.582-2.591-3.762-6.806-6.007-11.274-6.007h-18.656c-4.592 0-9.031 2.302-11.583 6.007-1.974 2.866-1.79 7.881-1.619 9.905l1.184 7.895v.09c0 1.94-1.581 3.52-3.521 3.52-1.879 0-3.419-1.479-3.516-3.334-.276-.998-1.708-6.553-2.311-15.531.179-16.968 13.912-30.695 30.61-30.695 16.986 0 30.432 13.44 30.611 30.598-.294 8.015-2.06 16.187-2.312 17.316-.079 1.873-1.628 3.373-3.521 3.373z" fill="#f04e37"/><path d="m38.818 21.587h-5.674v-15.491s1.115-.344 2.939-.344 2.735.344 2.735.344z"/><path d="m27.967 23.94v-3.852c0-.668.547-1.216 1.216-1.216h13.673c.668 0 1.216.548 1.216 1.216v3.852" fill="#fff"/><path d="m44.68 23.94h-1.216v-3.852c0-.33-.279-.608-.607-.608h-13.674c-.329 0-.608.278-.608.608v3.852h-1.216v-3.852c0-1.006.819-1.824 1.824-1.824h13.673c1.004 0 1.823.818 1.823 1.824v3.852z"/><path d="m14.551 35.677s-.202-3.698 4.002-5.573 10.335-.202 12.919 1.824c0 0-1.975-3.598-8.46-3.851-6.486-.253-8.917 2.431-9.525 5.42-.608 2.991 1.064 2.18 1.064 2.18z"/><path d="m57.478 35.677s.202-3.698-4.003-5.573c-4.204-1.875-10.335-.202-12.919 1.824 0 0 1.975-3.598 8.461-3.851 6.485-.253 8.917 2.431 9.525 5.42.607 2.991-1.064 2.18-1.064 2.18z"/><path d="m17.997 33.57s-1.78 13.713 16.027 17.631c0 0 3.117-14.96-16.027-17.631z"/><path d="m32.541 53.457s.1 1.969 2.546 2.111c0 0 .046-2.172-2.546-2.111z"/><path d="m39.569 53.457s-.099 1.969-2.546 2.111c0 0-.046-2.172 2.546-2.111z"/><path d="m53.82 33.57s1.78 13.713-16.027 17.631c0 0-3.118-14.96 16.027-17.631z"/><path d="m30.77 59.814h11.044v1.216h-11.044z"/><path d="m32.082 49.199s-.131-6.631-5.645-10.226c0 .001 7.111 1.326 5.645 10.226z" fill="#fff"/><path d="m39.859 49.199s.13-6.631 5.645-10.226c-.001.001-7.11 1.326-5.645 10.226z" fill="#fff"/><path d="m47.286 24.756s3.04-2.736 3.243-9.423-4.155-10.132-5.371-11.044 8.916 1.722 16.618 12.665c7.701 10.943 4.053 23.103 3.444 27.256-.607 4.155-.507 9.728-3.647 9.728s-4.661-1.521-3.851-5.674c.81-4.154 3.851-20.671-10.436-23.508z" fill="#bc3223"/><path d="m29.326 53.719c-.261.916-1.104 1.475-1.882 1.254l-7.042-2.014c-.778-.224-1.196-1.143-.935-2.057.261-.917 1.103-1.478 1.882-1.254l7.042 2.011c.778.224 1.197 1.146.935 2.06z"/><path d="m42.266 53.719c.262.916 1.104 1.475 1.882 1.254l7.043-2.014c.777-.224 1.195-1.143.935-2.057-.262-.917-1.104-1.478-1.881-1.254l-7.045 2.011c-.777.224-1.196 1.146-.934 2.06z"/><path d="m36.002 4.231c16.208 0 29.219 12.565 29.395 29.396-.309 8.377-2.308 17.156-2.308 17.156 0 1.273-1.033 2.304-2.307 2.304-1.272 0-2.305-1.033-2.305-2.304l1.193-8.875c.168-2.838.165-8.322-1.98-11.433-2.978-4.324-7.665-6.533-12.275-6.533-4.612 0-8.069 0-8.069 0h-2.516s-3.46 0-8.071 0c-4.61 0-9.606 2.209-12.585 6.533-2.133 3.097-2.048 8.102-1.829 10.699l1.179 7.88c0 1.272-1.032 2.306-2.305 2.306s-2.306-1.033-2.306-2.306c0 0-1.655-5.707-2.307-15.428.174-16.119 13.188-29.395 29.396-29.395m0-2.431c-17.361 0-31.638 14.264-31.827 31.8l-.001.095.007.094c.586 8.759 1.965 14.337 2.317 15.65.197 2.432 2.24 4.351 4.721 4.351 2.611 0 4.737-2.123 4.737-4.735v-.181l-.026-.178-1.167-7.804c-.327-3.968.19-7.26 1.416-9.039 2.328-3.38 6.382-5.481 10.581-5.481h8.071 2.517 8.069c4.068 0 7.909 2.05 10.272 5.481 1.227 1.778 1.806 5.445 1.559 9.822l-1.18 8.782-.022.161v.164c0 2.612 2.125 4.735 4.736 4.735 2.508 0 4.564-1.954 4.726-4.422.325-1.473 2.03-9.522 2.318-17.382l.002-.057v-.056c-.183-17.832-14.163-31.8-31.826-31.8z"/></svg>