<svg viewBox="0 0 72 72" xmlns="http://www.w3.org/2000/svg"><path d="m39.9 49.8c-.9.1-1.7.3-2.4.6 3.3 2.8 3.8 7.8-.9 11.6 0 0 9.3-3.3 9.2-12.8-1.1.1-2.1.2-3.1.3-.9.1-1.9.2-2.8.3zm-5.3-17.1c-3-1.8-6.3-3.3-9.3-4.6-4.7-2-17.2-9.1-23.3-18v14.4c0 7.2 8.5 11.4 8.5 11.4-2.3.8-4.1-.3-6.9-1.6 0 8.8 8.2 12.1 16.1 12.8 1.8.2 3.4.3 4.9.5.8-6.7 5.1-11.5 10-14.9z" fill="#d62627"/><path d="m14.4 28.3s2.1 8.2 8.1 10.9c-1.8 1-5.6.8-5.6.8s.9 3.5 8.5 4.2c.9-2.9 2.5-5.4 4.6-7.6-5.4-2-11.1-4.2-15.6-8.3zm26.7 21.3c.1.2.2.5.3.8 1.2 3.2.4 8.5-4.9 11.5 4.2-1.9 7.5-7.3 7.2-12.6-.4 0-.7.1-1.1.1-.4.1-.9.2-1.5.2z" fill="#fcb514"/><path d="m35.4 61.9c-6.6-5.3-2.9-13 4.3-13.7 3.8-.4 7.5-.8 12.5-1.3 7.9-.7 16.1-4 16.1-12.8-2.7 1.3-4.6 2.5-6.9 1.6 0 0 8.5-4.2 8.5-11.4v-14.4c-6.1 9-18.6 16-23.3 18.1-9 3.8-20.2 9.5-20.5 20.7-.2 9.8 9.3 13.2 9.3 13.2z" fill="#fcb514"/><path d="m35.4 61.9c-7-3.1-11.2-15.8-1.5-21.6 6.8-4 16.7-5.7 23.7-12.1 0 0-2.1 8.2-8.1 10.9 1.8 1 5.6.8 5.6.8s-1 3.6-8.9 4.2c-5.6.4-13.5.1-15.7 6.1-1.2 3.4-.4 8.7 4.9 11.7z" fill="#d62627"/></svg>