<svg viewBox="0 0 72 72" xmlns="http://www.w3.org/2000/svg" xmlns:xlink="http://www.w3.org/1999/xlink"><radialGradient id="a" cx="-28.697" cy="380.923" gradientTransform="matrix(1.8198 .0089 .00849 .7553 83.26 -259.763)" gradientUnits="userSpaceOnUse" r="2.093"><stop offset=".003" stop-color="#f7adaf" stop-opacity=".97"/><stop offset=".408" stop-color="#f7b0af" stop-opacity=".576"/><stop offset=".732" stop-color="#f7baaf" stop-opacity=".261"/><stop offset="1" stop-color="#f8c9b0" stop-opacity="0"/></radialGradient><radialGradient id="b" cx="-111.79" cy="309.698" gradientTransform="matrix(1.5905 .06062 -.0565 .8076 238.408 -215.844)" gradientUnits="userSpaceOnUse" r="1.746"><stop offset="0" stop-color="#f7adaf" stop-opacity=".97"/><stop offset=".406" stop-color="#f7b0af" stop-opacity=".576"/><stop offset=".732" stop-color="#f7baaf" stop-opacity=".261"/><stop offset="1" stop-color="#f8c9b0" stop-opacity="0"/></radialGradient><path d="m17.5 70.3c-1.9 0-3.2-1.3-3.5-3.4 0-.3-.1-.5-.1-.8-.2-1.6-.4-2.9-.4-5 0-1.3.9-2.1 1.4-2.4-.1-.3-.1-.6-.2-.9v-.1c-.8-3.4-1.9-7.9-1.9-12.2-.4-5.1.4-9.1.6-9.9.5-2.4 1.4-3.7 3-4.6 1.5-.8 3.6-1.1 7.3-1.1h1c-1.1-.4-1.8-1.2-2.1-2.2-.2-.9-.2-2.8 0-4v-.1c0-.2.1-.5.2-.8-1.4-.5-2.3-1.1-2.8-1.9l-.2-.3.1-.4c.4-1.5 1.6-2.8 3.5-3.9.2-.1.5-.3.7-.4-1.1-.5-2.3-1.3-2.8-2.4l-.2-.4.2-.4c.8-1.3 2.9-2.1 5.6-2.1h.8c-1.6-1.9-1.8-3.2-1.7-4.1v-.4l.4-.1c.6-.3 1.3-.5 2.1-.5 2 0 4.4 1 6.2 2.6-.1-1.9 0-4.3 1-5.8l.4-.6.7.3c1.9.7 3.3 2.2 4.1 4.3.2.4.3.9.4 1.4.5-.6 1.1-.9 1.8-.9h.3l.2.1c2.2 1.5 3.1 4.4 3 6.7.3-.2.6-.2.9-.3h.4l.3.3c.5.5.8 1.5.8 2.6 0 .7-.1 2-.9 3.3.1.2.3.4.3.6.2 1-.8 2-1.7 2.7.1.3.3 1.2.4 3.1l.1.1c.6.5 1.3.9 2 1.7.8.8 1.3 1.7 1.7 2.7 1.2.1 1.9.1 2.2.2 3.1.5 5.1 2.5 5.5 5.3 0 0 .4 4.6.6 8.6.3 7.2.3 17.2-.4 22.5-.3 2.1-1.5 3.2-3.5 3.2h-16.7l-.6-6.4h-1.3l-.5 6.4h-12.7c-3.1.1-5.6.1-6 .1z" fill="#231f20"/><path d="m58.2 44.5c-.2-4-.6-8.5-.6-8.5-.3-2-1.7-4-4.8-4.6-.5-.1-1.3-.2-2.5-.2-.3-1-.9-2-1.7-2.9s-1.7-1.6-2.5-2.2c0-.9-.1-2.8-.4-3.2-.1-.2-.4-.2-.7-.3 2.1-.8 3.4-3.1 1.5-2.7 1.9-1.8 1.8-5 1-5.8-.9.1-2.3 1.4-2.3 1.4 1-2.3.2-6.3-2.2-8-1.6 0-2.3 2.8-2.4 3 .1-1.9-.2-6.4-4.1-7.8-1.6 2.4-.5 8.1-.5 8.1-1.8-3.1-6.7-5.4-9.1-4-.2 2.1 2.6 4.6 3.5 5.3-2.9-.9-7.2-.6-8.3 1.2.9 1.8 4.3 2.8 4.3 2.8s-4.9 1.5-5.6 4.5c.8 1.2 2.7 1.7 4.3 2 .5-.1 1-.2 1.6-.2h.6-.6c-.5 0-1.1.1-1.6.2-.9.2-1.6.6-1.7 1.3-.2 1.2-.2 3 0 3.7.4 1.4 2 2.1 4.5 2-.2.4-.3.8-.4 1.2h-3.7c-6.7 0-8.5 1-9.4 5-.3 1.3-.9 5.1-.6 9.6.1 5 1.6 10.5 2.3 13.7 0 0-1.6.5-1.6 1.9 0 2.4.2 3.8.5 5.7.2 1.9 1.4 2.6 2.6 2.6.9 0 15.9-.1 17.9-.1l.5-6.4h2.9l.6 6.4h15.9c1.2 0 2.4-.6 2.6-2.5.5-5.4.5-15.6.2-22.2zm-27.6-29.4s0-.1 0 0c0-.1 0 0 0 0zm.3-.6c0-.1 0-.1 0 0zm21.4 29.5 3.1-2.1z" fill="#79432f"/><path d="m58.2 44.5-2.7-2.6-3.2 2.1-9.1-.8c2.2 9.2 1 16.5 1 16.5s-2.6 0-2.6 2.3c0 1.8.1 5.1.2 5.8s.7 1.5 1.6 1.5h11.6c1.2 0 2.4-.6 2.6-2.5.9-5.5.9-15.7.6-22.3z" fill="#f8c9b0"/><path d="m58.2 44.5c-.2-4-.6-8.5-.6-8.5-.3-2-1.7-4-4.8-4.6-3.2-.6-22.9-.5-29.1-.5-6.7 0-8.5 1-9.4 5-.3 1.3-.9 5.1-.6 9.6l2.3 13.7c0 1.5 9.8 10 9.8 10h9.5l.6-6.2h2.9l.6 6.2h9.7s3.1-12.5 3.2-19.6c.2-2.3.3-3.8.1-5.7l3.1-2z" fill="#f05a28"/><path d="m48.9 68.9s.3.1.4 0c.3-1.8 1.8-8.4 2.4-12.9-10.3.5-18.2-6.3-18.2-6.3s-.3-17.5-.3-20.7c-.9.1-1.5.3-2.4.6v20.5l-8.7 2.4s2.8 13.3 3.5 15.9c0 .1 0 .2.1.3v.2h9.6l.5-5.9h2.9l.6 5.9z" fill="#7f2719"/><path d="m52.8 67.7c0 .5-.2 1.6-.2 1.6h-13.3l-.4-4.5h11c-.1.5-.1.9-.2 1.2h1.6c.9.1 1.5.8 1.5 1.7zm-22.9-2.8s-1.3-1.2-2.1-1c-.6.2-1 1-1 1h-2l.3 1.2h-.7c-1 0-1.5.7-1.5 1.6 0 .5.2 1.6.2 1.6h12.3l.3-4.5h-5.8z" fill="#f8c9b0"/><path d="m49.6 69.4h.3v-.4c.1-.6.1-1.2 0-1.7-.1-.2-.1-.5-.3-.6l-.2-.2c-.1 0-.1-.1-.2-.1.1.1.2.2.2.3.1.1.1.3.2.6.1.5 0 1 0 1.6.1.3 0 .4 0 .5zm1.7 0h.3v-.4c.1-.6.1-1.2 0-1.7-.1-.2-.1-.5-.3-.6l-.2-.2c-.1 0-.1-.1-.2-.1.1.1.2.2.2.3.1.1.1.3.2.6.1.5 0 1 0 1.6.1.3 0 .4 0 .5zm-3.4 0h.3v-.4c.1-.6.1-1.2 0-1.7-.1-.2-.1-.5-.3-.6l-.2-.2c-.1 0-.1-.1-.2-.1.1.1.2.2.2.3.1.1.1.3.2.6.1.5 0 1 0 1.6.1.3 0 .4 0 .5zm-25.3-17.3c-.6 0-1.1-.2-1.1-.2-.1 0-.1-.1-.1-.2s.1-.1.2-.1c0 0 .8.3 1.8.1s1.9-.8 2-.8c.1-.1.2 0 .3.1s0 .2-.1.3c0 0-1 .6-2.1.9-.4-.1-.7-.1-.9-.1zm13 12.9h-5.7s-.1 0-.1-.1c0 0-1-.9-1.8-.9s-1 .8-1 .8c0 .1-.1.1-.2.1h-2c-.1 0-.2-.1-.2-.2s.1-.2.2-.2h1.9c.1-.3.5-.9 1.3-.9.9 0 1.8.7 2 .9h5.6c.1 0 .2.1.2.2s-.1.3-.2.3zm14.2 0h-10.8c-.1 0-.2-.1-.2-.2s.1-.2.2-.2h10.7c.1 0 .2.1.2.2s0 .2-.1.2z" fill="#231f20"/><path d="m13.7 45.5 3.2-2.2 3.9 2.2 3.3-2.5 3.6 2.6v13s3.3.2 3.3 2.5c0 1.8-.1 6-.2 6.7s-.7 1.6-1.6 1.6h-11.6c-1.2 0-2.4-.7-2.6-2.6s-.5-3.3-.5-5.7c0-1.4 1.6-1.9 1.6-1.9-.8-3.2-2.3-8.7-2.4-13.7z" fill="#f8c9b0"/><path d="m29.5 69.8c-.1 0-.2-.1-.2-.2s.1-.2.2-.2c.6 0 1-1.1 1.1-1.6.1-.7.2-4.9.2-6.7 0-2.1-3.1-2.3-3.1-2.4-.1 0-.2-.1-.2-.2v-18.7c0-.1.1-.2.2-.2s.2.1.2.2v18.6c.3 0 .9.1 1.5.4 1.1.5 1.7 1.3 1.7 2.3 0 1.9-.1 6-.2 6.8 0 .7-.6 1.9-1.4 1.9z" fill="#231f20"/><path d="m45.6 60.7c3.1-1.4 6.1-4.8 6.1-4.8-6.1 0-10.7-1.5-14.4-3.9 1.7 2.2 5.6 6.7 8.3 8.7z" fill="#8b5667"/><g fill="#231f20"><path d="m45.5 60.9c-2.7-2-6.5-6.3-8.4-8.7l-.7-.8.9.6c4 2.6 8.7 3.8 14.3 3.8h.4l-.2.2c-.1 0-3.1 3.5-6.3 4.9zm-7.5-8.2c2 2.4 5.2 6.1 7.6 7.8 2.5-1.1 4.9-3.6 5.7-4.4-5.2-.1-9.5-1.2-13.3-3.4z"/><path d="m45.6 60.9h-.1s-2.3-1.7-4.4-4.1-4-4.6-4-4.6c-.1-.1-.1-.2 0-.2.1-.1.2-.1.2 0 0 0 3.7 2.4 7.9 3.3 4.2.8 6.4.6 6.4.6.1 0 .1 0 .2.1v.2s-.9 1.1-2.5 2.5c-1.6 1.2-3.6 2.1-3.7 2.2zm-7.5-8.1c.7.9 2 2.3 3.2 3.7 1.8 2.1 3.8 3.6 4.2 4 .4-.2 2.1-1.1 3.4-2.3 1-.9 1.8-1.7 2.2-2.1-.9 0-2.9 0-6.1-.6-2.8-.6-5.5-1.9-6.9-2.7z"/><path d="m52.8 69.7c-.1 0-.2-.1-.2-.2v-1.7c0-.9-.5-1.4-1.4-1.4h-1.6c-.1 0-.1 0-.1-.1v-.2c.2-1.1.4-1.9.6-2.7.5-1.8.9-3.6 1.6-9.5.8-7.4.2-13.7.2-13.8s.1-.2.2-.2.2.1.2.2.7 6.4-.2 13.9c-.7 5.9-1.2 7.7-1.6 9.5-.2.8-.4 1.5-.6 2.5h1.4c1.1 0 1.7.7 1.7 1.8v1.7c0 .1-.1.2-.2.2zm-25-18.6c-.1 0-.2-.1-.2-.1 0-.1 0-.2.1-.2l2.8-.6v-17.1c0-.1.1-.2.2-.2s.2.1.2.2v17.3c0 .1-.1.2-.1.2zm9.9 1.5-4.4-2.9v-.1l-.5-19.2h.4l.5 19.1 4.2 2.8z"/></g><path d="m32.7 40 5.8 7.4 5-6.8z" fill="#29b473"/><path d="m38.5 47.7-6.3-8 11.6.6zm-5.4-7.5 5.4 6.9 4.6-6.3z" fill="#231f20"/><circle cx="32.2" cy="50.5" fill="#bbbdbf" r="1.9"/><path d="m32.2 52.6c-1.1 0-2.1-.9-2.1-2.1s.9-2.1 2.1-2.1c1.1 0 2.1.9 2.1 2.1s-.9 2.1-2.1 2.1zm0-3.9c-1 0-1.8.8-1.8 1.8s.8 1.8 1.8 1.8 1.8-.8 1.8-1.8-.8-1.8-1.8-1.8z" fill="#231f20"/><path d="m48.6 28.2c-1.7-1.9-4-2.9-4.7-4.1-.8-1.4-.7-7.3-1.9-9.1-.8-1.2-1.9-.1-4.1 1.9-2.3-2.9-5-3.8-6.5-3-2.9 1.3.5 12.6-3.5 14.2-.2-.3-.2-1.2-.3-2.2-.2.1-.6.4-.9 0s.8-2.2.8-2.2-1 .3-1.1 0 .6-1 1-1.4c-.8 0-1.7 0-2.5.2-.9.2-1.6.6-1.7 1.3-.2 1.2-.2 3 0 3.7.4 1.4 2 2.1 4.5 2-2.9 7.4 3 12.9 11.4 12.3 10.1-.7 14.4-8.3 9.5-13.6z" fill="#f8c9b0"/><path d="m43.3 22.7s1.9-.4 2.3.1c.5.5.4 3.6.4 3.6l-2.8-1.8z" fill="#f8c9b0"/><path d="m38.2 27.7c0 .8-1.8 1.5-3.9 1.5-2.2 0-4-.7-4-1.5s1.8-1.5 3.9-1.5 4 .7 4 1.5z" fill="url(#a)"/><path d="m46 27.6c-.1.7-1.4 1.3-3 1.2s-2.8-.7-2.8-1.5c.1-.7 1.4-1.3 3-1.2s2.9.7 2.8 1.5z" fill="url(#b)"/><path d="m31.9 28.2c.1 0 .4-.1.7-.2.1-.1.3-.2.4-.3s.1-.2.1-.3l-.2.2c-.1.1-.2.2-.4.2-.2.2-.5.4-.6.4zm2.2-.9c-.1.1-.1.2-.2.2l-.3.3-.3.3c-.1.1-.2.1-.2.2h.3c.1 0 .3-.1.4-.2s.2-.2.3-.4v-.2zm.9-.2c-.1.1-.1.3-.3.6-.1.1-.1.2-.2.3s-.1.2-.2.2c.1 0 .2 0 .3-.1l.3-.3c.2-.3.2-.6.1-.7zm7.7-.3v.3c0 .1.1.3.2.4s.2.3.3.3c.1.1.2.1.3.1l-.2-.2-.3-.3c-.1-.1-.2-.3-.2-.4s0-.1-.1-.2c.1 0 .1 0 0 0zm.9 0c-.1.1-.1.2-.1.2 0 .1.1.2.1.4.2.2.4.4.5.4 0-.1-.2-.3-.3-.5-.1-.1-.1-.2-.2-.3.1 0 .1-.1 0-.2.1.1.1 0 0 0zm.6.2c0 .1 0 .3.2.4.1.1.2.1.3.2h.2c0-.1-.2-.2-.3-.3-.2-.2-.3-.3-.4-.3zm2.3-7.1c1.9-1.8 1.8-5 1-5.8-.9.1-2.3 1.4-2.3 1.4 1-2.3.2-6.3-2.2-8-1.6 0-2.3 2.8-2.4 3 .1-1.9-.2-6.4-4.1-7.8-1.6 2.4-.5 8.1-.5 8.1-1.8-3.1-6.7-5.4-9.1-4-.2 2.1 2.6 4.6 3.5 5.3-2.9-.9-7.2-.6-8.3 1.2.9 1.8 4.3 2.8 4.3 2.8s-4.9 1.5-5.6 4.5c.8 1.2 2.7 1.7 4.3 2 .8-.2 1.7-.3 2.5-.2-.5.4-1.2 1.1-1 1.4.1.3 1.1 0 1.1 0s-1.1 1.8-.8 2.2c.3.3.7.1.9 0 0 1 .1 1.9.3 2.2 4-1.6.6-12.9 3.5-14.2 1.5-.8 4.2 0 6.5 3 2.2-2 3.3-3.1 4.1-1.9 1.2 1.8 1.1 7.7 1.9 9.1.1.3.4.5.6.7l-.2-2c2.3-.7 4.1-3.4 2-3z" fill="#79432f"/><path d="m32.6 20.9c.4 0 4-2.2 4.2-2.6s-.8-2.3-1.3-2.2-3.9 2.5-4 2.9.7 1.9 1.1 1.9zm10.7-.4c-.4.1-3.9-2-4.1-2.4s.6-1.9 1.1-1.9 4 2.1 4.1 2.6c0 .3-.7 1.6-1.1 1.7z" fill="#231f20"/><path d="m48.4 38.1c-1.4-3.3-4.2-8.9-8-8.5-5 .5-8.3 7.3-9.6 10.4 2.2 1.4 5.1 2.1 8.5 1.9 4-.4 7.1-1.8 9.1-3.8z" fill="#7b293e"/><path d="m38 36.7c-2.4-.8-4.3-.6-5.4-.3-.8 1.4-1.3 2.7-1.7 3.6 2.2 1.4 5.1 2.1 8.5 1.9 1.2-.1 2.3-.3 3.4-.6-1.3-1.9-2.9-4-4.8-4.6z" fill="#ec297b"/><path d="m44.6 38.6s-.6 6.5-1 8.8c-.5 3 2.7 2.9 2.2.1-.6-2.8-1.2-8.9-1.2-8.9z" fill="#fff"/><path d="m44.7 49.9c-.2 0-.4-.1-.6-.2-.6-.4-.8-1.2-.7-2.3.4-2.3 1-8.8 1-8.8 0-.1.1-.2.2-.2s.2.1.2.2.7 6.1 1.2 8.9c.2 1-.1 1.8-.6 2.2-.3.1-.5.2-.7.2zm-.1-9.5c-.2 2.1-.6 5.5-.8 7.1-.1.9.1 1.6.5 1.9.3.2.6.2.8 0 .4-.3.6-1 .5-1.8-.4-1.9-.8-5.2-1-7.2z" fill="#231f20"/><path d="m35 21.4c2.6-1.2 3.7 3 1.3 3.9-2.3.8-3.8-2.7-1.3-3.9zm5.9-.3c2.6.2 2.8 4.2-.1 3.9s-2.3-4 .1-3.9z" fill="#231f20"/><path d="m35.5 22.2c1.4-.4 1.6 1.6.6 2.1s-2.3-1.6-.6-2.1zm6.3.5c.7 1.4-1.2 2.3-1.8 1-.7-1.3 1.1-2.6 1.8-1z" fill="#fff"/><path d="m30.8 40.2c-.2-.1-.2-.2-.2-.3 1.2-3 4.6-10 9.7-10.5 3.9-.4 6.8 5.3 8.2 8.6 0 .1 0 .2-.1.2s-.2 0-.2-.1c-3.2-7.7-6.2-8.6-7.8-8.4-5 .5-8.2 7.3-9.4 10.3-.1.1-.1.2-.2.2zm-2.8-11.9c-.1 0-.1 0-.2-.1-.1-.3-.2-1-.3-2-.3.1-.6.1-.8-.1-.3-.4.2-1.4.6-2.1-.4.1-.8.1-.9-.2-.1-.2 0-.6 1.1-1.6.1-.1.2-.1.3 0s.1.2 0 .3c-.8.7-1 1.1-1 1.2.1.1.5 0 .9-.1.1 0 .2 0 .2.1v.2c-.6 1-.9 1.9-.8 2 .2.2.5 0 .6-.1h.2c.1 0 .1.1.1.2 0 1.1.1 1.7.2 2 1.8-1 1.8-4.5 1.8-7.7 0-3 0-5.8 1.5-6.4 1.4-.8 4.1-.2 6.6 2.9.1-.1.3-.2.4-.4 1.4-1.3 2.3-2 3-1.9.3 0 .6.2.8.6.7 1 .9 3.2 1.2 5.4.2 1.6.4 3.2.7 3.8.1.1.1.2.2.3l-.1-1.5c0-.1.1-.2.1-.2.1 0 .2 0 .3-.1.3-.1.7-.1.9-.3.1 0 .2 0 .2.1s0 .2-.1.2c-.3.2-.7.2-1 .3h-.2l.2 1.9c0 .1 0 .1-.1.2h-.2c-.3-.3-.5-.5-.7-.8-.4-.7-.6-2.2-.7-3.9-.2-2-.5-4.3-1.1-5.2-.2-.3-.4-.4-.6-.4-.6-.1-1.4.7-2.7 1.8-.2.2-.4.3-.6.5h-.1s-.1 0-.1-.1c-2.4-3-5-3.6-6.3-2.9-1.2.6-1.2 3.3-1.2 6.1 0 3.5 0 7.1-2.3 8z" fill="#231f20"/><path d="m37.9 42.1c-4.1 0-7.6-1.5-9.5-4.1-1.7-2.3-2-5.2-.9-8.3-2.5 0-4-.8-4.4-2.2-.2-.7-.2-2.6 0-3.8.1-.6.7-1.1 1.8-1.4.8-.2 1.7-.3 2.6-.2.1 0 .2.1.2.2s-.1.2-.2.2c-.8 0-1.7 0-2.5.2-.6.1-1.5.5-1.6 1.1-.2 1.3-.2 3 0 3.6.3 1.3 1.7 1.9 4.2 1.9h.1c.1 0 .1 0 .2.1v.2c-1.2 3-.9 5.9.7 8.2 2.1 2.8 6 4.2 10.5 3.9 5.3-.4 9.4-2.8 10.7-6.3.9-2.4.4-4.9-1.5-7-.8-.9-1.7-1.6-2.6-2.2-.9-.7-1.7-1.3-2.1-2 0-.1 0-.2.1-.2s.2 0 .2.1c.4.6 1.1 1.2 2 1.9.8.6 1.8 1.3 2.6 2.2 2 2.2 2.6 4.8 1.6 7.4-1.4 3.6-5.7 6.1-11.1 6.6-.2-.1-.6-.1-1.1-.1zm-9.7 22.5c-.1 0-.2-.1-.2-.2s.1-.2.2-.2l2.7-.4c.1 0 .2.1.2.2s-.1.2-.2.2l-2.7.4c.1-.1 0 0 0 0z" fill="#231f20"/><path d="m28.2 66.9c-.1 0-.2-.1-.2-.2l-.3-4.6c0-.1.1-.2.2-.2s.2.1.2.2l.3 4.6c0 .1-.1.2-.2.2zm-14.6-21.1c-.1 0-.1 0-.2-.1s0-.2 0-.3l3.3-2.3h.2l3.8 2.1 3.2-2.4h.2l3.6 2.6c.1.1.1.2 0 .3s-.2.1-.3 0l-3.5-2.5-3.2 2.4h-.2l-3.5-2.1-3.2 2.2c-.1 0-.1.1-.2.1zm44.8-.9h-.1l-2.9-2.7-3 2c-.1.1-.2 0-.3 0-.1-.1 0-.2 0-.3l3.1-2.1h.2l3 2.8c.1.1.1.2 0 .3z" fill="#231f20"/></svg>